# xmcd
#
# Track frame offsets:
#	150
#	12688
#	22393
#	34880
#	46532
#	57795
#	68709
#	80867
#	90257
#	101405
#	114425
#	125855
#	135236
#	148070
#	160027
#	172226
#	182480
#	193860
#	206831
#	221027
#	233929
#	244502
#	258983
#	269370
#	281835
#	292413
#	303272
#	316322
#	330157
#	341749
#
# Disc length: 4725 seconds
#
# Revision: 1
# Processed by: cddbd v1.5.2PL0 Copyright (c) Steve Scherf et al.
# Submitted via: EasyCDDAExtractor 8.2.3.1
#
DISCID=c912731e
DTITLE=Various Artist - Another Story Vol 3
DYEAR=1968
DGENRE=Country
TTITLE0=Ernest Tubb and The Texas Troubadours - If I Ever Stop Hurtin'
TTITLE1=Ernest Tubb and The Texas Troubadours - Just Pack Up And Go
TTITLE2=Ernest Tubb and The Texas Troubadours - I Threw Away The Rose
TTITLE3=Ernest Tubb and The Texas Troubadours - Send Me The Pillow You Dream On
TTITLE4=Ernest Tubb and The Texas Troubadours - The Day The World Stood Still
TTITLE5=Ernest Tubb and The Texas Troubadours - Just For You
TTITLE6=Ernest Tubb and The Texas Troubadours - Silent Partner
TTITLE7=Ernest Tubb and The Texas Troubadours - Jamming With C And C 
TTITLE8=Ernest Tubb and The Texas Troubadours - Mama  Who Was That Man?
TTITLE9=Ernest Tubb and The Texas Troubadours - Don't Squeeze My Sharmon
TTITLE10=Ernest Tubb and The Texas Troubadours - Sing Me Back Home
TTITLE11=Ernest Tubb and The Texas Troubadours - A Dime At A Time
TTITLE12=Ernest Tubb and The Texas Troubadours - The Bottle Let Me Down
TTITLE13=Ernest Tubb and The Texas Troubadours - Destination Atlanta, Ga
TTITLE14=Ernest Tubb and The Texas Troubadours - The Image Of Me
TTITLE15=Ernest Tubb and The Texas Troubadours - That's The Choice I'll Have To 
TTITLE15=Take
TTITLE16=Ernest Tubb and The Texas Troubadours - Today
TTITLE17=Ernest Tubb and The Texas Troubadours - She Went A Little Bit Farther
TTITLE18=Ernest Tubb and The Texas Troubadours - Saturday Satan Sunday Saint
TTITLE19=Ernest Tubb and The Texas Troubadours - Tommy's Doll
TTITLE20=Ernest Tubb and The Texas Troubadours - One More Memory
TTITLE21=Ernest Tubb and The Texas Troubadours and Loretta Lynn - If We Put Our He
TTITLE21=ads Together (Our Hearts Will Tell Us What To Do)
TTITLE22=Ernest Tubb and The Texas Troubadours and Loretta Lynn - I Chased You Til
TTITLE22=l You Caught Me
TTITLE23=Ernest Tubb and The Texas Troubadours and Loretta Lynn - I Won't Cheat Ag
TTITLE23=ain On You (If You Won't Cheat On Me)
TTITLE24=Ernest Tubb and The Texas Troubadours and Loretta Lynn - Who's Gonna Take
TTITLE24=The Garbage Out
TTITLE25=Ernest Tubb and The Texas Troubadours - Let's Turn Back The Years
TTITLE26=Ernest Tubb and The Texas Troubadours - Folsom Prison Blues
TTITLE27=Ernest Tubb and The Texas Troubadours - Making Believe
TTITLE28=Ernest Tubb and The Texas Troubadours and Loretta Lynn - Holding On To No
TTITLE28=thing
TTITLE29=Ernest Tubb and The Texas Troubadours and Loretta Lynn - Somewhere Betwee
TTITLE29=n
EXTD=
EXTT0=
EXTT1=
EXTT2=
EXTT3=
EXTT4=
EXTT5=
EXTT6=
EXTT7=
EXTT8=
EXTT9=
EXTT10=
EXTT11=
EXTT12=
EXTT13=
EXTT14=
EXTT15=
EXTT16=
EXTT17=
EXTT18=
EXTT19=
EXTT20=
EXTT21=
EXTT22=
EXTT23=
EXTT24=
EXTT25=
EXTT26=
EXTT27=
EXTT28=
EXTT29=
PLAYORDER=
